<svg xmlns:dc="http://purl.org/dc/elements/1.1/" xmlns:cc="http://creativecommons.org/ns#" xmlns:rdf="http://www.w3.org/1999/02/22-rdf-syntax-ns#" xmlns:svg="http://www.w3.org/2000/svg" xmlns="http://www.w3.org/2000/svg" xmlns:sodipodi="http://sodipodi.sourceforge.net/DTD/sodipodi-0.dtd" xmlns:inkscape="http://www.inkscape.org/namespaces/inkscape" id="svg3370" inkscape:version="0.91 r13725" xml:space="preserve" width="750" height="750" viewBox="0 0 750 750" sodipodi:docname="vodafon_logo.svg"> <metadata id="metadata3376"></metadata> <defs id="defs3374"> <clipPath clipPathUnits="userSpaceOnUse" id="clipPath3384"> <path d="M 0,600 600,600 600,0 0,0 0,600 Z" id="path3386" inkscape:connector-curvature="0"></path> </clipPath> </defs> <g id="g3378" inkscape:groupmode="layer" inkscape:label="mob-operators-logo" transform="matrix(1.25,0,0,-1.25,0,750)"> <g id="g3380"> <g id="g3382" clip-path="url(#clipPath3384)"> <g id="g3388" transform="translate(340.6455,478.02)"> <path d="m 0,0 0,-66 c 0,-24 -18.031,-42 -40.07,-42 -22.038,0 -38.067,18 -38.067,42 l 0,134 c 0,24 20.035,46 40.071,44 C -16.027,112 0,92 0,66 L 0,0 Z" style="fill:#29abe2;fill-opacity:1;fill-rule:nonzero;stroke:none" id="path3390" inkscape:connector-curvature="0"></path> </g> <g id="g3392" transform="translate(218.4316,206.0195)"> <path d="m 0,0 c 32.057,0 52.092,-28 40.07,-54 -6.01,-14 -16.028,-26 -26.046,-38 -20.035,-28 -40.07,-56 -60.105,-82 -14.024,-18 -36.063,-22 -54.095,-10 -18.031,12 -22.038,36 -8.013,54 28.048,40 56.098,78 84.147,116 C -20.035,-4 -8.014,0 0,0" style="fill:#29abe2;fill-opacity:1;fill-rule:nonzero;stroke:none" id="path3394" inkscape:connector-curvature="0"></path> </g> <g id="g3396" transform="translate(378.7129,206.0195)"> <path d="m 0,0 c 14.024,0 26.044,-6 34.06,-18 26.044,-36 52.09,-72 78.136,-110 16.029,-22 14.025,-44 -6.01,-58 -18.032,-14 -40.071,-10 -56.099,12 -28.049,36 -54.095,74 -80.14,110 -10.017,12 -12.021,26 -4.008,42 C -26.046,-8 -16.028,0 0,0" style="fill:#29abe2;fill-opacity:1;fill-rule:nonzero;stroke:none" id="path3398" inkscape:connector-curvature="0"></path> </g> <g id="g3400" transform="translate(42.123,398.02)"> <path d="m 0,0 c 10.018,0 24.042,-6 36.063,-10 34.06,-10 70.123,-22 104.182,-34 24.042,-8 36.064,-28 28.05,-50 -6.011,-22 -26.046,-32 -50.088,-24 -46.081,14 -90.158,28 -134.235,44 -20.035,6 -28.049,24 -24.042,42 2.003,20 18.031,32 40.07,32" style="fill:#29abe2;fill-opacity:1;fill-rule:nonzero;stroke:none" id="path3402" inkscape:connector-curvature="0"></path> </g> <g id="g3404" transform="translate(430.8037,278.0195)"> <path d="m 0,0 c -20.035,0 -36.063,12 -40.07,30 -4.007,18 4.007,38 22.039,44 46.08,16 94.165,32 140.245,46 20.035,6 40.07,-6 46.081,-24 C 174.306,76 166.291,54 146.257,48 100.176,32 52.091,18 6.011,2 4.007,0 0,0 0,0" style="fill:#29abe2;fill-opacity:1;fill-rule:nonzero;stroke:none" id="path3406" inkscape:connector-curvature="0"></path> </g> </g> </g> </g> </svg>