<svg xmlns:dc="http://purl.org/dc/elements/1.1/" xmlns:cc="http://creativecommons.org/ns#" xmlns:rdf="http://www.w3.org/1999/02/22-rdf-syntax-ns#" xmlns:svg="http://www.w3.org/2000/svg" xmlns="http://www.w3.org/2000/svg" xmlns:sodipodi="http://sodipodi.sourceforge.net/DTD/sodipodi-0.dtd" xmlns:inkscape="http://www.inkscape.org/namespaces/inkscape" id="svg3336" inkscape:version="0.91 r13725" xml:space="preserve" width="750" height="750" viewBox="0 0 750 750" sodipodi:docname="kyvstar_logo.svg"> <metadata id="metadata3342"></metadata> <defs id="defs3340"> <clipPath clipPathUnits="userSpaceOnUse" id="clipPath3350"> <path d="M 0,600 600,600 600,0 0,0 0,600 Z" id="path3352" inkscape:connector-curvature="0"></path> </clipPath> </defs> <g id="g3344" inkscape:groupmode="layer" inkscape:label="mob-operators-logo" transform="matrix(1.25,0,0,-1.25,0,750)"> <g id="g3346"> <g id="g3348" clip-path="url(#clipPath3350)"> <g id="g3354" transform="translate(412.4678,563.4434)"> <path d="m 0,0 c -5.558,0.455 -11.189,1.715 -16.656,1.212 -15.402,-1.416 -30.965,-2.465 -46.065,-5.584 -132.811,-27.423 -221.746,-135.682 -216.821,-263.341 4.02,-104.301 95.553,-180.112 197.247,-163.363 64.523,10.629 117.776,65.029 127.905,130.66 10.933,70.845 -20.533,132.265 -84.119,162.787 -13.774,6.613 -28.562,11.112 -44.645,17.258 C -80.936,-62.799 -50.695,-26.025 0,0 m -113.061,36.557 c 167.415,0.013 300.567,-132.409 300.593,-298.936 0.027,-166.503 -133.565,-300.8 -299.483,-301.064 -166.134,-0.265 -300.382,133.724 -300.517,299.932 -0.134,167.345 132.286,300.057 299.407,300.068" style="fill:#ff0000;fill-opacity:1;fill-rule:evenodd;stroke:none" id="path3356" inkscape:connector-curvature="0"></path> </g> <g id="g3358" transform="translate(412.4678,563.4434)"> <path d="m 0,0 c -50.695,-26.025 -80.936,-62.799 -83.154,-120.371 16.083,-6.146 30.871,-10.645 44.645,-17.258 63.586,-30.522 95.052,-91.942 84.119,-162.787 -10.129,-65.631 -63.382,-120.031 -127.905,-130.66 -101.694,-16.749 -193.227,59.062 -197.247,163.363 -4.925,127.659 84.01,235.918 216.821,263.341 15.1,3.119 30.663,4.168 46.065,5.584 C -11.189,1.715 -5.558,0.455 0,0" style="fill:#ffffff;fill-opacity:1;fill-rule:evenodd;stroke:none" id="path3360" inkscape:connector-curvature="0"></path> </g> </g> </g> </g> </svg>